<svg width="28" height="28" viewBox="0 0 28 28" fill="none" xmlns="http://www.w3.org/2000/svg">
<path d="M8.1665 25.6667C7.52484 25.6667 6.97573 25.4384 6.51917 24.9818C6.06184 24.5245 5.83317 23.975 5.83317 23.3333C5.83317 22.6917 6.06184 22.1422 6.51917 21.6848C6.97573 21.2283 7.52484 21 8.1665 21C8.80817 21 9.35728 21.2283 9.81384 21.6848C10.2712 22.1422 10.4998 22.6917 10.4998 23.3333C10.4998 23.975 10.2712 24.5245 9.81384 24.9818C9.35728 25.4384 8.80817 25.6667 8.1665 25.6667ZM19.8332 25.6667C19.1915 25.6667 18.6424 25.4384 18.1858 24.9818C17.7285 24.5245 17.4998 23.975 17.4998 23.3333C17.4998 22.6917 17.7285 22.1422 18.1858 21.6848C18.6424 21.2283 19.1915 21 19.8332 21C20.4748 21 21.0243 21.2283 21.4817 21.6848C21.9382 22.1422 22.1665 22.6917 22.1665 23.3333C22.1665 23.975 21.9382 24.5245 21.4817 24.9818C21.0243 25.4384 20.4748 25.6667 19.8332 25.6667ZM7.17484 7.00001L9.97484 12.8333H18.1415L21.3498 7.00001H7.17484ZM8.1665 19.8333C7.2915 19.8333 6.63039 19.4491 6.18317 18.6807C5.73595 17.913 5.7165 17.15 6.12484 16.3917L7.69984 13.5333L3.49984 4.66668H2.304C1.97345 4.66668 1.70123 4.55468 1.48734 4.33068C1.27345 4.10745 1.1665 3.83057 1.1665 3.50001C1.1665 3.16945 1.2785 2.89218 1.5025 2.66818C1.72573 2.44495 2.00262 2.33334 2.33317 2.33334H4.229C4.44289 2.33334 4.64706 2.39168 4.8415 2.50834C5.03595 2.62501 5.18178 2.79029 5.279 3.00418L6.0665 4.66668H23.2748C23.7998 4.66668 24.1596 4.86112 24.354 5.25001C24.5484 5.6389 24.5387 6.04723 24.3248 6.47501L20.1832 13.9417C19.9693 14.3306 19.6873 14.632 19.3373 14.8458C18.9873 15.0597 18.5887 15.1667 18.1415 15.1667H9.44984L8.1665 17.5H21.029C21.3596 17.5 21.6318 17.6116 21.8457 17.8348C22.0596 18.0588 22.1665 18.3361 22.1665 18.6667C22.1665 18.9972 22.0545 19.2741 21.8305 19.4973C21.6073 19.7213 21.3304 19.8333 20.9998 19.8333H8.1665ZM9.97484 12.8333H18.1415H9.97484Z" fill="#073B4C"/>
</svg>
